<svg width="10" height="10" viewBox="0 0 10 10" fill="none" xmlns="http://www.w3.org/2000/svg">
<path d="M9.11378 0.954454C8.83734 0.652292 8.50859 0.412416 8.14645 0.248617C7.7843 0.0848178 7.39589 0.000326281 7.00356 0C6.26146 0.000131664 5.54646 0.3027 5.00012 0.847799C4.45384 0.302609 3.73881 2.53325e-05 2.99669 0C2.6039 0.000443871 2.21506 0.0851932 1.85256 0.249371C1.49005 0.413548 1.16104 0.653912 0.884462 0.956631C-0.295238 2.24248 -0.294737 4.25369 0.885464 5.53409L5.00012 10L9.11479 5.53409C10.295 4.25369 10.2955 2.24248 9.11378 0.954454V0.954454Z" fill="white"/>
<path d="M7.00391 0.0996094C7.38172 0.099985 7.7562 0.181871 8.10547 0.339844C8.45471 0.497843 8.77256 0.729185 9.04004 1.02148L9.11426 0.954102L9.04004 1.02246C10.1866 2.27235 10.1858 4.22484 9.04102 5.4668L5 9.85254L0.958984 5.4668C-0.185817 4.2248 -0.186508 2.27209 0.958008 1.02441C1.22564 0.731487 1.54391 0.499231 1.89355 0.34082C2.2433 0.182418 2.61866 0.100037 2.99707 0.0996094C3.71141 0.0997378 4.40141 0.391725 4.92969 0.918945L5 0.989258L5.07031 0.918945C5.59874 0.391714 6.28944 0.0997361 7.00391 0.0996094Z" stroke="#FF54A0" stroke-opacity="0.7" stroke-width="0.2"/>
</svg>
